<svg width="26" height="29" viewBox="0 0 26 29" fill="none" xmlns="http://www.w3.org/2000/svg">
<g clip-path="url(#clip0)">
<g filter="url(#filter0_d)">
<path d="M13 1C6.95819 1 2 5.95819 2 12C2 18.0418 6.95819 23 13 23C19.0418 23 24 18.0418 24 12C24 5.95819 19.0418 1 13 1ZM13 20.3789C8.38 20.3789 4.62109 16.62 4.62109 12C4.62109 7.38002 8.38 3.62109 13 3.62109C17.62 3.62109 21.3789 7.38002 21.3789 12C21.3789 16.62 17.62 20.3789 13 20.3789Z" fill="black"/>
<path d="M14.2891 10.0664C14.2891 10.7784 13.712 11.3555 13 11.3555C12.288 11.3555 11.7109 10.7784 11.7109 10.0664C11.7109 9.3544 12.288 8.77734 13 8.77734C13.712 8.77734 14.2891 9.3544 14.2891 10.0664Z" fill="black"/>
<path d="M13 12.6447C11.8581 12.6447 10.8987 11.8937 10.5609 10.8636C8.855 11.0496 7.26434 11.4068 5.91402 11.9261C5.91368 11.951 5.91016 11.9751 5.91016 12.0001C5.91016 12.745 6.02715 13.4628 6.24098 14.1378C7.29573 13.5873 8.3285 13.2892 9.1328 13.2892C9.8057 13.2892 10.3225 13.4794 10.7121 13.8715C11.6127 14.776 11.716 16.6119 11.718 18.9678C12.1344 19.0443 12.5618 19.09 13 19.09C13.4384 19.09 13.8658 19.0443 14.2825 18.9678C14.284 16.6137 14.3867 14.777 15.2879 13.8715C15.6775 13.4799 16.1936 13.2892 16.8672 13.2892C17.6609 13.2892 18.6959 13.5759 19.7605 14.1336C19.9737 13.4599 20.0898 12.7435 20.0898 12.0001C20.0898 11.9756 20.0863 11.952 20.0862 11.9276C18.6232 11.3635 17.0045 11.0349 15.4393 10.8633C15.1014 11.8937 14.142 12.6447 13 12.6447Z" fill="black"/>
</g>
</g>
<defs>
<filter id="filter0_d" x="-2" y="1" width="30" height="30" filterUnits="userSpaceOnUse" color-interpolation-filters="sRGB">
<feFlood flood-opacity="0" result="BackgroundImageFix"/>
<feColorMatrix in="SourceAlpha" type="matrix" values="0 0 0 0 0 0 0 0 0 0 0 0 0 0 0 0 0 0 127 0"/>
<feOffset dy="4"/>
<feGaussianBlur stdDeviation="2"/>
<feColorMatrix type="matrix" values="0 0 0 0 0 0 0 0 0 0 0 0 0 0 0 0 0 0 0.25 0"/>
<feBlend mode="normal" in2="BackgroundImageFix" result="effect1_dropShadow"/>
<feBlend mode="normal" in="SourceGraphic" in2="effect1_dropShadow" result="shape"/>
</filter>
<clipPath id="clip0">
<rect width="26" height="29" fill="white"/>
</clipPath>
</defs>
</svg>
